<?xml version="1.0" standalone="no"?>
<!DOCTYPE svg PUBLIC "-//W3C//DTD SVG 20010904//EN"
 "http://www.w3.org/TR/2001/REC-SVG-20010904/DTD/svg10.dtd">
<svg version="1.0" xmlns="http://www.w3.org/2000/svg"
 width="260.000000pt" height="260.000000pt" viewBox="0 0 260.000000 260.000000"
 preserveAspectRatio="xMidYMid meet">
<metadata>
Created by potrace 1.14, written by Peter Selinger 2001-2017
</metadata>
<g transform="translate(0.000000,260.000000) scale(0.100000,-0.100000)"
fill="#000000" stroke="none">
<path d="M2454 2519 c-4 -8 0 -9 15 -4 13 4 21 2 21 -5 0 -6 -4 -8 -10 -5 -5
3 -10 -1 -10 -10 0 -11 5 -15 15 -12 8 4 17 2 20 -2 3 -5 -8 -8 -24 -7 -17 1
-28 -1 -25 -5 2 -4 -3 -12 -12 -17 -9 -5 -14 -15 -10 -21 4 -6 12 -9 17 -5 5
3 7 9 4 14 -3 4 3 11 12 14 10 4 14 4 10 0 -4 -4 -2 -13 4 -20 7 -8 6 -14 -2
-20 -8 -5 -9 -3 -4 6 5 8 3 11 -6 8 -8 -3 -13 -10 -12 -16 2 -6 -4 -9 -12 -6
-11 5 -14 1 -9 -12 5 -15 4 -16 -4 -4 -6 8 -9 17 -6 21 2 4 -1 11 -7 15 -8 5
-9 3 -4 -6 6 -10 4 -12 -8 -7 -9 3 -16 3 -16 -1 3 -19 -2 -23 -16 -12 -13 11
-14 10 -9 -4 3 -9 2 -16 -4 -16 -6 0 -13 6 -15 13 -4 10 -3 -22 2 -56 0 -5 6
-5 13 -1 7 5 8 3 4 -5 -6 -9 -12 -9 -25 3 -22 20 -38 21 -18 2 7 -8 13 -25 12
-38 -1 -18 -7 -23 -28 -22 -17 1 -24 -3 -20 -12 3 -8 9 -11 14 -8 5 3 6 -2 2
-11 -3 -9 -9 -13 -12 -8 -7 9 -14 9 -48 -2 -14 -5 -20 -13 -18 -26 3 -13 0
-17 -7 -13 -7 5 -9 1 -5 -9 3 -9 3 -16 -1 -14 -4 1 -8 -2 -10 -8 -2 -5 -10
-14 -18 -18 -8 -5 -12 -12 -9 -18 3 -5 -1 -6 -10 -3 -11 5 -14 2 -9 -9 3 -10
12 -13 22 -10 9 4 14 3 11 -1 -4 -4 -16 -8 -27 -11 -16 -3 -19 0 -15 12 5 12
2 14 -8 9 -8 -4 -3 3 12 16 14 13 33 35 42 50 14 22 14 27 2 32 -10 3 -12 0
-8 -11 4 -9 2 -14 -3 -10 -6 3 -11 -4 -11 -15 -2 -23 -22 -40 -37 -31 -5 4 -6
1 -1 -7 6 -10 4 -12 -8 -7 -12 4 -14 2 -10 -11 5 -13 4 -15 -8 -7 -8 6 -6 1 6
-9 20 -19 20 -19 0 -12 -11 4 -24 8 -30 9 -5 1 -15 8 -21 16 -9 12 -12 12 -19
0 -5 -8 -5 -11 0 -7 11 10 34 -23 28 -39 -3 -7 -9 -10 -14 -7 -5 3 -7 10 -4
15 3 5 -1 6 -9 3 -14 -5 -14 -8 -1 -21 8 -8 15 -17 16 -21 0 -4 2 -18 5 -32 3
-19 2 -21 -6 -10 -5 8 -22 16 -37 17 -20 2 -24 0 -13 -7 8 -5 17 -7 21 -4 4 2
11 -1 15 -7 4 -7 3 -9 -3 -6 -15 9 -36 -19 -27 -35 6 -10 3 -9 -9 1 -18 14
-24 37 -8 26 5 -3 12 -1 15 4 4 5 -2 8 -11 7 -10 -2 -21 2 -26 8 -9 14 -4 -24
7 -44 4 -8 -1 -5 -12 7 -16 18 -21 20 -26 8 -3 -8 -12 -12 -20 -9 -8 3 -17 1
-21 -5 -3 -6 0 -9 8 -5 8 3 18 0 22 -6 3 -6 1 -9 -6 -8 -7 2 -14 -3 -15 -9 -3
-27 -5 -28 -14 -13 -8 12 -9 9 -6 -10 2 -18 9 -24 22 -22 11 2 16 0 11 -4 -4
-4 -15 -8 -25 -9 -40 -5 -72 -32 -37 -32 8 0 11 5 8 10 -3 6 -1 7 6 3 6 -4 9
-11 6 -16 -3 -4 0 -10 7 -12 8 -3 6 -7 -5 -11 -9 -3 -16 -3 -16 1 4 24 -4 23
-28 -4 -16 -17 -23 -23 -17 -15 22 32 23 39 10 50 -12 10 -14 9 -10 -6 3 -11
-4 -27 -17 -38 l-22 -20 19 30 c14 23 15 27 3 18 -9 -7 -18 -11 -21 -8 -7 7
-3 -29 5 -42 4 -6 -1 -17 -11 -24 -15 -13 -16 -12 -3 4 7 9 9 17 3 17 -14 0
-23 -28 -12 -35 6 -4 14 -4 19 0 5 3 12 2 15 -3 3 -5 0 -9 -7 -9 -7 0 -21 -4
-32 -8 -12 -4 -15 -3 -9 2 9 6 8 11 -1 20 -11 10 -14 9 -14 -5 -2 -51 -2 -52
-32 -36 -18 9 -30 10 -34 4 -4 -6 -11 -8 -16 -5 -5 4 -9 1 -9 -4 0 -14 13 -14
27 0 8 8 13 8 17 0 4 -6 2 -11 -4 -11 -6 0 -8 -4 -5 -10 4 -6 -1 -7 -11 -3
-12 4 -15 3 -10 -5 4 -7 0 -22 -8 -34 -18 -25 -21 -42 -7 -33 5 3 12 1 15 -4
4 -5 -2 -8 -11 -6 -10 2 -21 4 -25 4 -13 2 -4 24 17 44 11 10 14 15 6 11 -11
-5 -13 -3 -8 10 4 11 3 15 -4 11 -6 -4 -8 -13 -5 -20 2 -7 -2 -16 -10 -19 -8
-3 -13 -11 -12 -18 2 -7 -5 -12 -14 -12 -10 1 -16 -3 -15 -10 1 -6 -4 -10 -12
-8 -12 3 -12 0 -1 -12 11 -14 8 -19 -14 -37 -15 -12 -23 -25 -19 -32 10 -16
13 -41 5 -32 -4 4 -8 11 -8 16 -1 5 -2 12 -3 16 0 4 -7 -2 -15 -12 -8 -11 -11
-26 -8 -34 4 -10 1 -13 -11 -8 -11 4 -15 1 -12 -12 2 -10 -3 -18 -10 -18 -8 0
-13 5 -12 10 1 5 -3 11 -9 14 -7 2 -11 -4 -10 -14 1 -13 -5 -17 -18 -15 -18 3
-18 2 -6 -15 13 -17 13 -17 -4 -1 -22 20 -12 46 10 27 12 -10 13 -9 8 5 -7 18
-20 21 -29 6 -5 -8 -12 -7 -23 2 -15 11 -15 11 -4 -3 7 -9 10 -25 6 -35 -4
-14 -3 -15 4 -6 7 11 10 11 15 -3 4 -9 3 -14 -2 -11 -4 3 -13 -6 -19 -19 -9
-19 -9 -25 1 -25 6 0 4 -5 -6 -11 -10 -6 -14 -16 -10 -22 3 -7 -3 -4 -14 6
-28 24 -32 22 -29 -18 4 -41 1 -43 -15 -14 -9 17 -8 20 2 14 8 -5 10 -4 5 4
-4 6 -11 9 -16 6 -4 -3 -10 -2 -13 2 -2 5 -3 3 -1 -3 3 -15 -29 -41 -44 -36
-7 2 -12 -1 -12 -8 0 -6 4 -9 9 -6 5 3 11 -1 15 -9 3 -8 0 -17 -6 -21 -6 -4
-8 -3 -5 3 3 5 0 10 -8 10 -10 0 -11 -5 -4 -19 5 -10 6 -18 2 -19 -4 0 1 -5
12 -10 l20 -9 -20 3 c-11 1 -20 7 -20 14 0 6 -3 14 -7 17 -5 3 -6 3 -3 0 2 -4
0 -15 -6 -25 -8 -16 -14 -17 -30 -9 -10 6 -19 7 -18 3 4 -21 -2 -34 -13 -28
-7 4 -5 0 5 -8 17 -14 17 -15 -5 -14 -20 2 -23 7 -22 44 1 35 -2 41 -13 32 -9
-8 -10 -16 -4 -23 6 -7 6 -17 1 -26 -9 -14 -12 -7 -9 16 0 3 -6 16 -15 29 -11
17 -12 26 -5 31 15 9 -9 23 -32 19 -10 -2 -18 -1 -18 3 3 20 -2 25 -11 12 -7
-11 -10 -11 -10 -2 0 7 -4 10 -10 7 -6 -4 -7 1 -3 11 4 11 2 15 -4 11 -5 -4
-19 0 -29 8 -16 13 -17 14 -1 9 28 -10 19 6 -10 17 -19 7 -23 13 -15 21 6 6 8
17 5 25 -5 12 -7 12 -15 1 -6 -9 -7 -5 -3 11 5 17 4 22 -6 18 -8 -2 -13 -11
-11 -18 2 -8 0 -10 -5 -6 -4 5 -8 13 -8 18 0 5 -3 9 -7 9 -4 1 -23 17 -43 37
-32 32 -35 39 -26 65 6 16 6 26 1 23 -4 -3 -11 1 -14 7 -3 7 -3 3 -1 -9 3 -12
2 -24 -3 -27 -6 -3 -10 0 -9 7 1 47 -4 69 -17 64 -7 -3 -19 0 -26 6 -10 9 -11
9 -6 0 9 -16 1 -16 -25 -2 -13 6 -18 17 -15 26 4 10 2 13 -8 10 -15 -6 -16 8
-2 33 4 8 -2 4 -15 -10 l-22 -25 8 25 c9 29 24 41 40 33 5 -4 6 -2 2 3 -5 5
-16 9 -25 9 -9 0 -16 6 -14 13 1 8 -2 11 -8 7 -5 -3 -10 -1 -10 5 0 6 -4 9 -9
6 -5 -4 -11 -1 -13 6 -3 7 -7 5 -11 -6 -4 -9 -3 -15 2 -12 5 3 20 -3 32 -14
13 -11 19 -19 12 -20 -6 0 -13 6 -16 13 -3 9 -8 9 -21 -2 -15 -12 -17 -12 -14
0 2 8 -4 13 -14 13 -10 -1 -17 1 -16 5 2 19 -3 31 -12 26 -6 -3 -7 1 -4 9 3 9
10 13 15 10 5 -3 6 3 2 12 -4 11 -8 13 -11 6 -2 -7 -8 -12 -13 -12 -11 0 -7
22 6 33 6 5 -6 6 -25 3 -21 -4 -30 -3 -22 3 11 6 10 10 -3 15 -14 5 -15 9 -5
21 7 8 9 15 4 15 -5 0 -2 5 6 11 13 9 13 10 0 6 -8 -2 -14 -10 -12 -17 1 -6
-3 -10 -10 -7 -7 2 -12 10 -10 16 1 6 -3 11 -9 11 -6 0 -9 -6 -6 -14 4 -11 -1
-14 -18 -13 -26 2 -35 19 -13 25 9 2 8 0 -2 -8 -13 -10 -13 -11 0 -7 8 2 14
10 12 16 -1 6 4 11 10 11 9 0 8 4 -2 10 -21 13 -39 12 -20 -1 12 -9 12 -10 -3
-5 -10 3 -21 6 -24 6 -3 0 0 7 7 15 10 12 10 15 0 15 -9 0 -10 3 -1 13 8 10 7
14 -4 14 -8 0 -12 -4 -9 -9 3 -4 0 -8 -5 -8 -16 0 -13 20 4 26 16 6 11 24 -6
24 -6 0 -7 -4 -4 -10 3 -5 2 -10 -4 -10 -5 0 -11 6 -14 13 -3 9 -13 8 -38 -6
l-34 -17 30 25 c17 14 35 23 41 21 6 -2 11 2 11 9 0 11 -8 10 -36 -4 -38 -19
-61 -18 -61 4 0 7 -7 18 -15 25 -9 7 -13 15 -11 18 3 2 0 14 -6 26 -11 21 -11
21 11 2 11 -11 24 -16 28 -13 3 4 1 7 -6 7 -6 0 -15 9 -19 20 -7 18 -10 18
-35 5 -15 -7 -27 -10 -27 -4 0 5 5 9 11 9 5 0 7 4 4 10 -4 6 1 7 12 4 15 -6
15 -4 -2 9 -25 20 -36 21 -29 3 3 -8 0 -17 -7 -22 -8 -4 -10 -3 -5 4 4 7 2 12
-4 12 -6 0 -8 5 -5 10 10 17 -7 11 -22 -7 -13 -16 -13 -15 0 7 12 22 12 27 0
39 -12 11 -14 10 -11 -4 2 -10 -3 -19 -10 -21 -7 -1 -8 0 -2 3 7 3 3 11 -10
20 -12 8 -19 21 -16 28 5 13 -20 42 -33 38 -3 -1 -8 1 -11 4 -3 4 1 3 8 -1 7
-4 15 -1 18 8 3 9 11 13 16 10 6 -4 6 -9 -2 -14 -9 -5 -9 -9 -1 -14 6 -4 11
-4 12 1 0 4 2 15 4 23 2 11 -6 16 -28 17 -22 0 -26 -2 -16 -9 11 -8 10 -9 -3
-4 -10 3 -20 1 -23 -4 -4 -7 -20 -7 -43 -1 -1 1 2 10 8 21 8 16 8 18 -4 14
-14 -5 -15 -141 -16 -1110 l0 -1104 1300 0 1300 0 0 1235 0 1235 -69 0 c-40 0
-73 -5 -77 -11z m-39 -129 c4 -6 3 -10 -2 -9 -20 3 -27 -2 -13 -12 12 -8 10
-9 -7 -4 -14 4 -23 2 -23 -5 0 -6 -5 -8 -11 -4 -8 5 24 34 48 43 1 1 5 -4 8
-9z m55 -4 c0 -3 -4 -8 -10 -11 -5 -3 -10 -1 -10 4 0 6 5 11 10 11 6 0 10 -2
10 -4z m-255 -246 c-3 -5 -12 -10 -18 -10 -7 0 -6 4 3 10 19 12 23 12 15 0z
m-114 -57 c13 -16 12 -17 -3 -4 -17 13 -22 21 -14 21 2 0 10 -8 17 -17z m-11
-43 c0 -5 -2 -10 -4 -10 -3 0 -8 5 -11 10 -3 6 -1 10 4 10 6 0 11 -4 11 -10z
m-134 -79 c-4 -5 0 -11 6 -14 7 -2 9 -8 5 -13 -9 -10 -28 16 -21 28 3 4 7 8
10 8 3 0 3 -4 0 -9z m-1582 -17 c3 -8 2 -12 -4 -9 -6 3 -10 10 -10 16 0 14 7
11 14 -7z m1560 -29 c-3 -7 -13 -16 -22 -20 -14 -5 -14 -4 1 13 9 10 14 22 10
27 -5 4 -3 5 4 1 7 -4 10 -13 7 -21z m-1527 -11 c-3 -3 -12 -4 -19 -1 -8 3 -5
6 6 6 11 1 17 -2 13 -5z m8 -42 c-3 -3 -11 0 -18 7 -9 10 -8 11 6 5 10 -3 15
-9 12 -12z m1515 -2 c-8 -5 -19 -10 -25 -10 -5 0 -3 5 5 10 8 5 20 10 25 10 6
0 3 -5 -5 -10z m-1383 -110 c1 -11 -2 -20 -5 -20 -4 0 -8 9 -9 20 -1 11 2 20
5 20 4 0 8 -9 9 -20z m1223 -50 c0 -5 -4 -10 -10 -10 -5 0 -10 5 -10 10 0 6 5
10 10 10 6 0 10 -4 10 -10z m-1076 -116 c3 -8 2 -12 -4 -9 -6 3 -10 10 -10 16
0 14 7 11 14 -7z m946 -27 c0 -4 -7 -1 -16 7 -8 9 -21 16 -27 16 -7 0 -6 -4 3
-10 8 -5 11 -12 7 -17 -5 -4 -12 -1 -17 7 -7 11 -4 19 8 28 14 11 19 10 29 -5
7 -9 13 -21 13 -26z m-915 3 c3 -5 1 -10 -4 -10 -6 0 -11 5 -11 10 0 6 2 10 4
10 3 0 8 -4 11 -10z m55 -1 c0 -4 -9 -7 -19 -6 -11 0 -18 4 -16 7 6 9 35 8 35
-1z m76 -141 c3 -4 -1 -5 -10 -4 -8 1 -18 5 -22 8 -3 4 1 5 10 4 8 -1 18 -5
22 -8z m441 -142 c0 -8 -3 -15 -6 -14 -18 2 -22 -4 -12 -16 9 -11 9 -16 0 -22
-7 -4 -9 -3 -5 4 3 6 1 14 -4 17 -8 5 -6 13 6 26 21 23 21 23 21 5z m-64 -119
c-5 -8 -8 -7 -11 1 -2 7 -9 9 -14 6 -7 -4 -8 -2 -4 4 4 6 13 9 21 6 8 -4 12
-11 8 -17z m-38 -1 c12 -12 12 -15 -1 -20 -8 -3 -12 -2 -9 4 3 6 1 10 -4 10
-6 0 -11 5 -11 10 0 14 9 12 25 -4z"/>
<path d="M2308 2324 c-8 -7 2 -44 11 -44 8 0 8 37 0 45 -3 3 -8 2 -11 -1z"/>
<path d="M2250 2275 c-7 -8 -16 -12 -21 -9 -5 3 -9 2 -8 -3 3 -19 -2 -27 -10
-15 -7 11 -9 11 -14 -1 -3 -9 2 -21 11 -29 8 -7 13 -8 9 -2 -4 7 0 17 8 24 8
7 15 9 15 5 0 -4 6 -2 13 4 8 6 18 7 23 3 4 -4 3 0 -4 9 -6 9 -9 19 -5 22 3 4
4 7 1 7 -3 0 -11 -7 -18 -15z"/>
<path d="M26 2251 c-4 -5 1 -8 9 -7 21 3 31 16 12 16 -9 0 -18 -4 -21 -9z"/>
<path d="M129 2218 c-12 -40 2 -77 15 -42 5 14 9 14 24 3 9 -7 6 -1 -7 14 -23
25 -30 31 -32 25z m16 -17 c3 -5 2 -12 -3 -15 -5 -3 -9 1 -9 9 0 17 3 19 12 6z"/>
<path d="M2024 2038 c-4 -7 -4 -10 1 -6 4 4 15 2 24 -5 14 -11 14 -10 2 6 -16
20 -18 21 -27 5z"/>
<path d="M281 2024 c6 -7 16 -11 21 -8 5 3 8 -1 6 -9 -2 -9 0 -16 5 -16 4 -1
8 2 9 7 0 4 8 13 17 20 14 11 14 11 -1 6 -9 -3 -23 -2 -30 2 -7 5 -19 9 -26
10 -10 2 -10 -1 -1 -12z"/>
<path d="M522 1821 c-11 -6 -10 -10 4 -15 9 -3 19 -4 22 -1 3 3 -1 5 -9 5 -11
0 -11 2 1 10 8 5 11 10 5 10 -5 0 -16 -4 -23 -9z"/>
<path d="M590 1719 c0 -5 5 -7 10 -4 6 3 10 8 10 11 0 2 -4 4 -10 4 -5 0 -10
-5 -10 -11z"/>
<path d="M750 1616 c0 -2 8 -10 18 -17 15 -13 16 -12 3 4 -13 16 -21 21 -21
13z"/>
<path d="M715 1600 c-3 -5 -1 -10 4 -10 6 0 11 5 11 10 0 6 -2 10 -4 10 -3 0
-8 -4 -11 -10z"/>
<path d="M1545 1570 c6 -24 5 -24 -9 -6 -9 11 -16 14 -16 7 0 -7 -5 -9 -12 -5
-8 4 -10 3 -5 -2 5 -5 13 -10 18 -10 5 -1 11 -2 14 -3 3 0 -3 -10 -12 -21 -14
-16 -20 -17 -32 -7 -14 11 -14 10 -2 -5 13 -17 8 -23 -14 -18 -5 1 -7 -2 -3
-6 4 -4 4 -12 -2 -18 -6 -8 -3 -12 10 -12 10 0 16 4 13 9 -3 5 -2 12 3 16 5 3
22 20 38 38 23 26 26 34 17 50 -11 16 -11 15 -6 -7z"/>
<path d="M830 1500 c0 -5 0 -12 0 -15 0 -12 14 -4 16 10 1 8 -2 15 -7 15 -5 0
-9 -4 -9 -10z"/>
<path d="M850 1463 c0 -18 57 -56 63 -41 2 8 13 -2 25 -21 16 -26 18 -38 10
-48 -8 -10 -6 -13 6 -13 9 0 19 1 23 3 11 3 11 37 0 44 -6 3 -7 1 -3 -5 4 -7
3 -12 -2 -12 -5 0 -15 14 -22 30 -7 17 -17 30 -22 30 -5 0 -7 4 -4 8 3 5 -1 9
-9 9 -8 0 -11 -5 -8 -10 4 -6 -1 -8 -11 -4 -10 4 -21 7 -24 7 -4 0 -1 4 7 9 9
6 10 11 2 15 -6 4 -11 1 -11 -6 0 -9 -3 -9 -10 2 -6 9 -10 10 -10 3z"/>
<path d="M953 1435 c0 -8 4 -12 9 -9 5 3 6 10 3 15 -9 13 -12 11 -12 -6z"/>
<path d="M1356 1393 c-6 -14 -5 -15 5 -6 7 7 10 15 7 18 -3 3 -9 -2 -12 -12z"/>
<path d="M1356 1364 c-17 -16 -13 -34 7 -34 7 0 6 4 -3 10 -8 5 -10 10 -4 10
7 0 14 7 18 15 7 19 1 19 -18 -1z"/>
<path d="M989 1319 c-7 -13 -7 -19 -1 -15 6 4 15 -2 21 -11 6 -10 11 -14 11
-9 0 5 7 2 16 -5 22 -18 44 -20 37 -3 -3 8 -9 15 -14 15 -5 1 -15 2 -21 3 -7
1 -12 10 -11 21 1 11 0 14 -3 8 -8 -18 -27 -16 -20 2 8 22 -2 18 -15 -6z"/>
<path d="M1056 1322 c-3 -5 1 -9 9 -9 8 0 12 4 9 9 -3 4 -7 8 -9 8 -2 0 -6 -4
-9 -8z"/>
<path d="M1090 1276 c0 -8 4 -17 9 -20 5 -4 7 3 4 14 -6 23 -13 26 -13 6z"/>
<path d="M1085 1220 c4 -6 11 -8 16 -5 14 9 11 15 -7 15 -8 0 -12 -5 -9 -10z"/>
</g>
</svg>
